{
  "accessors": [
    {
      "bufferView": 2,
      "componentType": 5126,
      "count": 24,
      "max": [
        0.5,
        0.5,
        0.5
      ],
      "min": [
        -0.5,
        -0.5,
        -0.5
      ],
      "type": "VEC3"
    },
    {
      "bufferView": 2,
      "byteOffset": 288,
      "componentType": 5126,
      "count": 24,
      "max": [
        1,
        1,
        1
      ],
      "min": [
        -1,
        -1,
        -1
      ],
      "type": "VEC3"
    },
    {
      "bufferView": 0,
      "componentType": 5125,
      "count": 36,
      "max": [
        23
      ],
      "min": [
        0
      ],
      "type": "SCALAR"
    },
    {
      "bufferView": 2,
      "byteOffset": 576,
      "componentType": 5126,
      "count": 1091,
      "max": [
        31.72760009765625,
        31.620849609375,
        6.267399787902832
      ],
      "min": [
        -31.713199615478516,
        -31.621250152587891,
        -95.114402770996094
      ],
      "type": "VEC3"
    },
    {
      "bufferView": 2,
      "byteOffset": 13668,
      "componentType": 5126,
      "count": 1091,
      "max": [
        1,
        1,
        0.99998933076858521
      ],
      "min": [
        -1,
        -1,
        -1
      ],
      "type": "VEC3"
    },
    {
      "bufferView": 3,
      "componentType": 5126,
      "count": 1091,
      "max": [
        1,
        1,
        0.99350112676620483,
        1
      ],
      "min": [
        -0.99999153614044189,
        -1,
        -0.99355745315551758,
        -1
      ],
      "type": "VEC4"
    },
    {
      "bufferView": 1,
      "componentType": 5126,
      "count": 1091,
      "max": [
        0.83700001239776611,
        0.99102997779846191
      ],
      "min": [
        0.012529999949038029,
        0.088919997215270996
      ],
      "type": "VEC2"
    },
    {
      "bufferView": 1,
      "byteOffset": 8728,
      "componentType": 5126,
      "count": 1091,
      "max": [
        0.83700001239776611,
        0.99102997779846191
      ],
      "min": [
        0.012529999949038029,
        0.088919997215270996
      ],
      "type": "VEC2"
    },
    {
      "bufferView": 0,
      "byteOffset": 144,
      "componentType": 5125,
      "count": 5010,
      "max": [
        1090
      ],
      "min": [
        0
      ],
      "type": "SCALAR"
    },
    {
      "bufferView": 2,
      "byteOffset": 26760,
      "componentType": 5126,
      "count": 6039,
      "max": [
        111.61514282226562,
        38.517440795898438,
        18.038549423217773
      ],
      "min": [
        -111.54988861083984,
        -184.6475830078125,
        -91.920646667480469
      ],
      "type": "VEC3"
    },
    {
      "bufferView": 2,
      "byteOffset": 99228,
      "componentType": 5126,
      "count": 6039,
      "max": [
        1,
        1,
        1
      ],
      "min": [
        -1,
        -1,
        -1
      ],
      "type": "VEC3"
    },
    {
      "bufferView": 3,
      "byteOffset": 17456,
      "componentType": 5126,
      "count": 6039,
      "max": [
        1,
        1,
        1,
        1
      ],
      "min": [
        -1,
        -1,
        -1,
        -1
      ],
      "type": "VEC4"
    },
    {
      "bufferView": 0,
      "byteOffset": 20184,
      "componentType": 5125,
      "count": 21582,
      "max": [
        6038
      ],
      "min": [
        0
      ],
      "type": "SCALAR"
    },
    {
      "bufferView": 2,
      "byteOffset": 171696,
      "componentType": 5126,
      "count": 16,
      "max": [
        111.04831695556641,
        37.950649261474609,
        0.40174999833106995
      ],
      "min": [
        -110.98310852050781,
        -184.08078002929688,
        0.40174999833106995
      ],
      "type": "VEC3"
    },
    {
      "bufferView": 2,
      "byteOffset": 171888,
      "componentType": 5126,
      "count": 16,
      "max": [
        0,
        0,
        1
      ],
      "min": [
        0,
        0,
        1
      ],
      "type": "VEC3"
    },
    {
      "bufferView": 3,
      "byteOffset": 114080,
      "componentType": 5126,
      "count": 16,
      "max": [
        1,
        1,
        0,
        1
      ],
      "min": [
        -1,
        -1,
        0,
        1
      ],
      "type": "VEC4"
    },
    {
      "bufferView": 1,
      "byteOffset": 17456,
      "componentType": 5126,
      "count": 16,
      "max": [
        0.77669000625610352,
        0.98359000682830811
      ],
      "min": [
        0.53360998630523682,
        0.49371999502182007
      ],
      "type": "VEC2"
    },
    {
      "bufferView": 0,
      "byteOffset": 106512,
      "componentType": 5125,
      "count": 24,
      "max": [
        15
      ],
      "min": [
        0
      ],
      "type": "SCALAR"
    },
    {
      "bufferView": 2,
      "byteOffset": 172080,
      "componentType": 5126,
      "count": 314,
      "max": [
        31.005300521850586,
        27.206399917602539,
        -40.969001770019531
      ],
      "min": [
        -32.384700775146484,
        -32.383201599121094,
        -57.093898773193359
      ],
      "type": "VEC3"
    },
    {
      "bufferView": 2,
      "byteOffset": 175848,
      "componentType": 5126,
      "count": 314,
      "max": [
        1,
        1,
        1
      ],
      "min": [
        -1,
        -1,
        -1
      ],
      "type": "VEC3"
    },
    {
      "bufferView": 3,
      "byteOffset": 114336,
      "componentType": 5126,
      "count": 314,
      "max": [
        0.99976450204849243,
        0.99505698680877686,
        0.94298046827316284,
        1
      ],
      "min": [
        -0.59916692972183228,
        -0.98162949085235596,
        -0.99748402833938599,
        -1
      ],
      "type": "VEC4"
    },
    {
      "bufferView": 1,
      "byteOffset": 17584,
      "componentType": 5126,
      "count": 314,
      "max": [
        0.7270200252532959,
        0.86296999454498291
      ],
      "min": [
        0.032389998435974121,
        0.25903001427650452
      ],
      "type": "VEC2"
    },
    {
      "bufferView": 0,
      "byteOffset": 106608,
      "componentType": 5125,
      "count": 1308,
      "max": [
        313
      ],
      "min": [
        0
      ],
      "type": "SCALAR"
    }
  ],
  "asset": {
    "extras": {
      "author": "NASA (https://sketchfab.com/NASA)",
      "license": "CC-BY-NC-4.0 (http://creativecommons.org/licenses/by-nc/4.0/)",
      "source": "https://sketchfab.com/models/hUZJyxkL45sN62mJb3FlL4lQCvU",
      "title": "NEAR Satellite"
    },
    "generator": "Sketchfab-3.28.5",
    "version": "2.0"
  },
  "bufferViews": [
    {
      "buffer": 0,
      "byteLength": 111840,
      "byteOffset": 0,
      "name": "floatBufferViews",
      "target": 34963
    },
    {
      "buffer": 0,
      "byteLength": 20096,
      "byteOffset": 111840,
      "byteStride": 8,
      "name": "floatBufferViews",
      "target": 34962
    },
    {
      "buffer": 0,
      "byteLength": 179616,
      "byteOffset": 131936,
      "byteStride": 12,
      "name": "floatBufferViews",
      "target": 34962
    },
    {
      "buffer": 0,
      "byteLength": 119360,
      "byteOffset": 311552,
      "byteStride": 16,
      "name": "floatBufferViews",
      "target": 34962
    }
  ],
  "buffers": [
    {
      "byteLength": 430912,
      "uri": "scene.bin"
    }
  ],
  "images": [
    {
      "uri": "textures/foil_gold_baseColor.png"
    },
    {
      "uri": "textures/foil_gold_normal.png"
    },
    {
      "uri": "textures/shiny_panels_normal.png"
    },
    {
      "uri": "textures/foil_silver_baseColor.png"
    },
    {
      "uri": "textures/foil_silver_normal.png"
    }
  ],
  "materials": [
    {
      "doubleSided": true,
      "emissiveFactor": [
        0,
        0,
        0
      ],
      "name": "root_0",
      "pbrMetallicRoughness": {
        "baseColorFactor": [
          1,
          1,
          1,
          1
        ],
        "metallicFactor": 0,
        "roughnessFactor": 0.59999999999999998
      }
    },
    {
      "doubleSided": true,
      "emissiveFactor": [
        0,
        0,
        0
      ],
      "name": "foil_gold",
      "normalTexture": {
        "index": 1,
        "scale": 0.45000000000000001,
        "texCoord": 1
      },
      "pbrMetallicRoughness": {
        "baseColorFactor": [
          0.75,
          0.75,
          0.75,
          1
        ],
        "baseColorTexture": {
          "index": 0,
          "texCoord": 0
        },
        "metallicFactor": 0,
        "roughnessFactor": 0.59999999999999998
      }
    },
    {
      "doubleSided": true,
      "emissiveFactor": [
        0,
        0,
        0
      ],
      "name": "tex_01",
      "pbrMetallicRoughness": {
        "baseColorFactor": [
          0.64000001904000015,
          0.64000001904000015,
          0.64000001904000015,
          1
        ],
        "metallicFactor": 0,
        "roughnessFactor": 0.59999999999999998
      }
    },
    {
      "doubleSided": true,
      "emissiveFactor": [
        0,
        0,
        0
      ],
      "name": "shiny_panels",
      "normalTexture": {
        "index": 2,
        "scale": 1,
        "texCoord": 0
      },
      "pbrMetallicRoughness": {
        "baseColorFactor": [
          0.64000001904000015,
          0.64000001904000015,
          0.64000001904000015,
          1
        ],
        "metallicFactor": 0,
        "roughnessFactor": 0.59999999999999998
      }
    },
    {
      "doubleSided": true,
      "emissiveFactor": [
        0,
        0,
        0
      ],
      "name": "foil_silver",
      "normalTexture": {
        "index": 4,
        "scale": 1,
        "texCoord": 0
      },
      "pbrMetallicRoughness": {
        "baseColorFactor": [
          1,
          1,
          1,
          1
        ],
        "baseColorTexture": {
          "index": 3,
          "texCoord": 0
        },
        "metallicFactor": 0,
        "roughnessFactor": 0.59999999999999998
      }
    }
  ],
  "meshes": [
    {
      "name": "_root_0",
      "primitives": [
        {
          "attributes": {
            "NORMAL": 1,
            "POSITION": 0
          },
          "indices": 2,
          "material": 0,
          "mode": 4
        }
      ]
    },
    {
      "name": "foil_gold_0",
      "primitives": [
        {
          "attributes": {
            "NORMAL": 4,
            "POSITION": 3,
            "TANGENT": 5,
            "TEXCOORD_0": 6,
            "TEXCOORD_1": 7
          },
          "indices": 8,
          "material": 1,
          "mode": 4
        }
      ]
    },
    {
      "name": "tex_01_0",
      "primitives": [
        {
          "attributes": {
            "NORMAL": 10,
            "POSITION": 9,
            "TANGENT": 11
          },
          "indices": 12,
          "material": 2,
          "mode": 4
        }
      ]
    },
    {
      "name": "shiny_panels_0",
      "primitives": [
        {
          "attributes": {
            "NORMAL": 14,
            "POSITION": 13,
            "TANGENT": 15,
            "TEXCOORD_0": 16
          },
          "indices": 17,
          "material": 3,
          "mode": 4
        }
      ]
    },
    {
      "name": "foil_silver_0",
      "primitives": [
        {
          "attributes": {
            "NORMAL": 19,
            "POSITION": 18,
            "TANGENT": 20,
            "TEXCOORD_0": 21
          },
          "indices": 22,
          "material": 4,
          "mode": 4
        }
      ]
    }
  ],
  "nodes": [
    {
      "children": [
        1
      ],
      "name": "RootNode (gltf orientation matrix)",
      "rotation": [
        -0.70710678118654746,
        -0,
        -0,
        0.70710678118654757
      ]
    },
    {
      "children": [
        2
      ],
      "name": "RootNode (model correction matrix)"
    },
    {
      "children": [
        3
      ],
      "name": "Root"
    },
    {
      "children": [
        4,
        5,
        7,
        9,
        11
      ],
      "name": "_root"
    },
    {
      "mesh": 0,
      "name": "_root_0"
    },
    {
      "children": [
        6
      ],
      "matrix": [
        0.023720000000000005,
        0,
        0,
        0,
        0,
        0.023720000000000005,
        0,
        0,
        0,
        0,
        0.023720000000000005,
        0,
        0,
        -0,
        1.2836199999999998,
        1
      ],
      "name": "foil_gold"
    },
    {
      "mesh": 1,
      "name": "foil_gold_0"
    },
    {
      "children": [
        8
      ],
      "matrix": [
        0,
        0.023720000000000005,
        0,
        0,
        -0.023720000000000005,
        0,
        0,
        0,
        0,
        0,
        0.023720000000000005,
        0,
        -1.7331400000000001,
        -0.00077000000000000028,
        0.74811000000000005,
        1
      ],
      "name": "tex_01"
    },
    {
      "mesh": 2,
      "name": "tex_01_0"
    },
    {
      "children": [
        10
      ],
      "matrix": [
        0.023720000000000005,
        0,
        0,
        0,
        0,
        0.023720000000000005,
        0,
        0,
        0,
        0,
        0.023720000000000005,
        0,
        -0.00077000000000000028,
        1.7331400000000001,
        0.74811000000000005,
        1
      ],
      "name": "shiny_panels"
    },
    {
      "mesh": 3,
      "name": "shiny_panels_0"
    },
    {
      "children": [
        12
      ],
      "matrix": [
        0.023720000000000005,
        0,
        0,
        0,
        0,
        0.023720000000000005,
        0,
        0,
        0,
        0,
        0.023720000000000005,
        0,
        0,
        0,
        0,
        1
      ],
      "name": "foil_silver"
    },
    {
      "mesh": 4,
      "name": "foil_silver_0"
    }
  ],
  "samplers": [
    {
      "magFilter": 9729,
      "minFilter": 9987,
      "wrapS": 10497,
      "wrapT": 10497
    },
    {
      "magFilter": 9729,
      "minFilter": 9729,
      "wrapS": 10497,
      "wrapT": 10497
    }
  ],
  "scene": 0,
  "scenes": [
    {
      "name": "OSG_Scene",
      "nodes": [
        0
      ]
    }
  ],
  "textures": [
    {
      "sampler": 0,
      "source": 0
    },
    {
      "sampler": 0,
      "source": 1
    },
    {
      "sampler": 1,
      "source": 2
    },
    {
      "sampler": 0,
      "source": 3
    },
    {
      "sampler": 0,
      "source": 4
    }
  ]
}

